<svg width="28" height="13" viewBox="0 0 28 13" fill="none" xmlns="http://www.w3.org/2000/svg">
<path d="M0 5C0 2.23858 2.23858 0 5 0H23C25.7614 0 28 2.23858 28 5V8C28 10.7614 25.7614 13 23 13H5C2.23858 13 0 10.7614 0 8V5Z" fill="#8C8264"/>
<path d="M10.0058 4.60345H17.9745C17.9745 4.27072 17.9745 3.94312 17.9743 3.61552C17.9743 3.59829 17.9703 3.58106 17.9675 3.56383C17.9104 3.23297 17.6126 2.92888 17.2666 2.89465C16.9796 2.86625 15.8788 2.91328 15.8773 2.88045C14.5474 2.88045 10.8616 2.86881 10.6031 2.87905C10.4035 2.8872 10.2485 2.9964 10.1364 3.16964C10.042 3.31562 10.0018 3.48024 10.0009 3.6551C9.99935 3.95127 10.0002 4.24767 10.0005 4.54384C10.0005 4.56293 10.0038 4.58226 10.0058 4.60345Z" fill="#DDDAD1"/>
<path d="M10.0003 5.16237V5.26132C10.0003 6.81249 10.0003 8.36365 10.0003 9.91481C10.0003 9.94974 10.0003 9.98466 10.0018 10.0194C10.0215 10.4739 10.2939 10.75 10.723 10.75C12.8497 10.75 14.9761 10.75 17.1028 10.7495C17.1658 10.7495 17.2297 10.7444 17.2921 10.7344C17.715 10.6666 18 10.3176 18 9.86941C18 8.34153 18 6.81365 18 5.28577V5.1626L10.0003 5.16237ZM15.3841 6.34634C15.3867 6.20967 15.4659 6.13283 15.5945 6.1319C15.7955 6.13027 15.9965 6.13004 16.1972 6.1319C16.3255 6.13307 16.402 6.21409 16.4044 6.34891C16.4053 6.40386 16.4055 6.45904 16.4053 6.51422C16.4051 6.5694 16.4048 6.62435 16.4048 6.67953C16.4048 6.73169 16.4053 6.78385 16.4053 6.836C16.4053 6.88816 16.4053 6.94031 16.4044 6.99247C16.4022 7.12495 16.3449 7.19853 16.2218 7.20272C16.0073 7.20994 15.7924 7.20994 15.578 7.20389C15.457 7.20039 15.3863 7.11913 15.3838 6.98968C15.3799 6.77523 15.3799 6.56079 15.3841 6.34634ZM11.4228 6.34541C11.4254 6.21456 11.5013 6.13353 11.6248 6.13237C11.8287 6.13027 12.0323 6.13027 12.2362 6.13237C12.3575 6.13353 12.4374 6.20664 12.4411 6.334C12.4475 6.54845 12.4477 6.76336 12.4422 6.9778C12.4389 7.11261 12.3549 7.20063 12.2262 7.20482C12.0255 7.2111 11.8241 7.21134 11.6233 7.20575C11.4931 7.20226 11.4241 7.1189 11.4223 6.98106C11.421 6.87372 11.4221 6.76638 11.4221 6.65905C11.4221 6.58081 11.4212 6.50235 11.4217 6.42411C11.4217 6.39804 11.4221 6.37149 11.4228 6.34541ZM12.4427 9.33528C12.4393 9.47801 12.3489 9.56532 12.2136 9.56672C12.0208 9.56882 11.828 9.56882 11.6352 9.56695C11.4979 9.56579 11.4237 9.48453 11.4221 9.33784C11.421 9.23632 11.4221 9.13481 11.4221 9.03329C11.4221 8.92595 11.4208 8.81861 11.4226 8.71128C11.4248 8.57902 11.4957 8.49637 11.6211 8.49334C11.8276 8.48845 12.0341 8.48868 12.2406 8.49311C12.3626 8.49567 12.4385 8.5725 12.4418 8.7001C12.4473 8.91175 12.4477 9.12386 12.4427 9.33528ZM14.4086 9.37626C14.4051 9.50246 14.3363 9.56486 14.2163 9.56625C14.0071 9.56882 13.7979 9.56928 13.5888 9.56625C13.4699 9.56439 13.3964 9.48243 13.3916 9.35647C13.3914 9.35065 13.3914 9.34483 13.3914 9.339C13.3914 9.23749 13.3914 9.1362 13.3914 9.03469C13.3916 8.92455 13.3896 8.81442 13.392 8.70429C13.3947 8.58182 13.4641 8.49776 13.5804 8.4945C13.7949 8.48868 14.0098 8.48868 14.2242 8.49497C14.3339 8.49823 14.4059 8.57344 14.4088 8.68962C14.4148 8.91827 14.4148 9.14761 14.4086 9.37626ZM14.4086 7.01412C14.4053 7.13729 14.3436 7.19993 14.2244 7.20365C14.0126 7.21017 13.8006 7.21041 13.5888 7.20482C13.4626 7.20132 13.3947 7.11797 13.3911 6.98595C13.3911 6.98013 13.3911 6.97431 13.3911 6.96849C13.3911 6.86697 13.3911 6.76569 13.3911 6.66417C13.3911 6.55986 13.3898 6.45555 13.3916 6.35123C13.394 6.21456 13.4685 6.13376 13.5965 6.13237C13.8002 6.13027 14.0038 6.13027 14.2076 6.13237C14.325 6.13353 14.4055 6.20501 14.409 6.32772C14.4155 6.55636 14.4148 6.78548 14.4086 7.01412ZM16.4046 9.34902C16.4026 9.49338 16.3374 9.56532 16.203 9.56672C15.9994 9.56905 15.7955 9.56905 15.5919 9.56672C15.4672 9.56532 15.3876 9.48919 15.3845 9.35763C15.3794 9.14039 15.3796 8.92269 15.3841 8.70545C15.3867 8.57367 15.4628 8.49567 15.5888 8.49287C15.7924 8.48868 15.9963 8.48868 16.1999 8.49287C16.3294 8.49567 16.4022 8.57856 16.4044 8.71407C16.4062 8.82141 16.4048 8.92851 16.4048 9.03585C16.4048 9.14016 16.4059 9.24447 16.4046 9.34902Z" fill="#DDDAD1"/>
<path d="M11.1429 2.82141C11.1429 2.50583 11.3987 2.25 11.7143 2.25C12.0299 2.25 12.2857 2.50583 12.2857 2.82141V2.87497H11.1429V2.82141Z" fill="#DDDAD1"/>
<path d="M15.7141 2.82138C15.7141 2.50581 15.97 2.25 16.2855 2.25C16.6011 2.25 16.8569 2.50584 16.8569 2.82143L16.8569 3.43746H15.7141L15.7141 2.82138Z" fill="#DDDAD1"/>
<path d="M13.5 2.82141C13.5 2.50583 13.7558 2.25 14.0714 2.25C14.387 2.25 14.6428 2.50583 14.6428 2.82141V2.87497H13.5V2.82141Z" fill="#DDDAD1"/>
</svg>
