<svg width="9" height="9" viewBox="0 0 9 9" fill="none" xmlns="http://www.w3.org/2000/svg">
<path d="M2.62066 8.99533C1.90391 8.99533 1.18717 8.99701 0.470141 8.99448C0.174995 8.99335 -0.02468 8.77509 0.00686235 8.49262C0.0133398 8.4346 0.0358701 8.37743 0.0567106 8.32195C0.243712 7.82544 0.420575 7.3264 0.48028 6.7944C0.496333 6.6519 0.479716 6.52037 0.417195 6.38604C-0.671862 4.04599 0.451554 1.24885 2.85328 0.311876C5.37442 -0.67157 8.17831 0.758257 8.85535 3.37261C9.48873 5.81827 7.98089 8.30196 5.51016 8.88211C5.15982 8.96435 4.80412 8.99701 4.4442 8.99589C3.83645 8.9942 3.22841 8.99533 2.62066 8.99533Z" fill="#999894"/>
<path d="M5.28712 5.5955C5.29062 5.62949 5.29551 5.65432 5.29537 5.67901C5.29495 5.74588 5.29607 5.81331 5.28866 5.87963C5.28544 5.90821 5.26405 5.9354 5.24866 5.9619C5.14769 6.13559 5.02699 6.295 4.88532 6.43748C4.70127 6.62269 4.48253 6.74603 4.21932 6.77932C3.99947 6.80707 3.81095 6.74575 3.67403 6.56581C3.60172 6.47092 3.58662 6.35854 3.61417 6.24533C3.6757 5.99283 3.74312 5.74186 3.80843 5.49033C3.91891 5.06442 4.0294 4.63836 4.14017 4.21244C4.16338 4.12296 4.18772 4.03389 4.21107 3.94455C4.22072 3.90778 4.22366 3.87171 4.19639 3.83952C4.16758 3.80553 4.13779 3.79832 4.09737 3.81663C4.01472 3.85423 3.95276 3.91638 3.8978 3.98589C3.7729 4.14391 3.64899 4.30262 3.5248 4.46106C3.51921 4.46827 3.51459 4.47618 3.50956 4.48367C3.50578 4.48228 3.502 4.48076 3.49823 4.47937C3.49515 4.45495 3.4904 4.43067 3.48914 4.40612C3.48592 4.34286 3.48312 4.27931 3.48242 4.21591C3.48228 4.20093 3.48816 4.184 3.49641 4.17124C3.64689 3.93914 3.8308 3.73617 4.05136 3.5683C4.2203 3.43969 4.40072 3.32939 4.61679 3.29582C4.82308 3.26377 5.11748 3.39349 5.15804 3.68289C5.16978 3.76641 5.16517 3.84757 5.14363 3.92942C4.95916 4.63073 4.77595 5.33245 4.59232 6.03404C4.58183 6.07427 4.5712 6.11437 4.56085 6.15474C4.5505 6.19566 4.56211 6.23007 4.59428 6.25712C4.6256 6.28348 4.65749 6.27682 4.69162 6.26059C4.78588 6.2155 4.85147 6.13989 4.91399 6.06012C5.03021 5.91153 5.14727 5.76364 5.26405 5.61561C5.2681 5.61048 5.27398 5.60673 5.28712 5.5955Z" fill="white"/>
<path d="M5.51255 2.49144C5.50682 2.73284 5.33312 2.91944 5.08459 2.95163C4.94026 2.97036 4.80628 2.94469 4.68824 2.85743C4.59412 2.78778 4.53566 2.69413 4.51356 2.5794C4.49286 2.47216 4.50223 2.36852 4.55104 2.26919C4.60167 2.16597 4.68181 2.09202 4.78642 2.04791C4.92907 1.98769 5.07578 1.98256 5.22067 2.04208C5.4106 2.12005 5.51745 2.28639 5.51255 2.49144Z" fill="white"/>
</svg>
