<svg width="11" height="11" viewBox="0 0 11 11" fill="none" xmlns="http://www.w3.org/2000/svg">
<path d="M7.86346 10.9998H2.32056C2.30075 10.9929 2.28124 10.9826 2.26086 10.98C0.961594 10.813 0.00185246 9.72915 0.000991445 8.42266C-0.000443575 6.4711 0.000130433 4.51955 0.00156545 2.56828C0.00156545 2.44001 0.00816654 2.31002 0.0282568 2.18347C0.230021 0.915722 1.30399 0.00120803 2.59005 0.000347179C4.53077 -0.000800627 6.4715 -0.000226724 8.41222 0.000921082C8.51927 0.000921082 8.62689 0.00752097 8.73309 0.0201468C9.75769 0.142388 10.6089 0.862924 10.8942 1.85205C10.9384 2.00556 10.9651 2.16396 11.0001 2.32006V7.86311C10.993 7.88692 10.9826 7.91017 10.9795 7.93427C10.9172 8.42295 10.7335 8.86313 10.3986 9.2224C10.0255 9.62241 9.63514 10.0072 9.23965 10.3854C8.96154 10.6514 8.62288 10.8219 8.24891 10.9168C8.12177 10.949 7.99204 10.9725 7.86375 11.0001L7.86346 10.9998ZM10.1411 7.17873C10.1411 7.13855 10.1411 7.11416 10.1411 7.08949C10.1411 5.5893 10.1417 4.08941 10.1397 2.58922C10.1397 2.48248 10.1299 2.37401 10.1087 2.26956C9.93621 1.42047 9.25084 0.85948 8.38409 0.858906C6.46174 0.857758 4.5391 0.858045 2.61675 0.859767C2.49936 0.859767 2.37997 0.86895 2.26517 0.89248C1.41678 1.06551 0.859994 1.75075 0.859707 2.62108C0.858559 4.53992 0.858846 6.45905 0.860568 8.3779C0.860568 8.49526 0.868604 8.61492 0.891852 8.7297C1.06291 9.57793 1.75028 10.1395 2.61675 10.1404C4.09883 10.1418 5.58092 10.1406 7.06301 10.1406C7.09802 10.1406 7.13275 10.1406 7.17896 10.1406C7.17896 10.0921 7.17896 10.054 7.17896 10.0155C7.17896 9.6468 7.16547 9.2772 7.18413 8.90962C7.19475 8.69871 7.23005 8.48005 7.30266 8.28263C7.54805 7.6169 8.18405 7.18475 8.89352 7.17901C9.30451 7.17557 9.71579 7.17844 10.1411 7.17844V7.17873ZM8.0569 10.0738C8.26843 10.0173 8.46531 9.9283 8.62001 9.77908C9.01349 9.39916 9.40094 9.01235 9.78065 8.61836C9.92932 8.46398 10.0189 8.26742 10.0751 8.05077C9.65093 8.05077 9.23649 8.03757 8.82349 8.0545C8.41222 8.07115 8.0724 8.41291 8.05461 8.82439C8.0371 9.22785 8.04743 9.63274 8.046 10.0371C8.046 10.0468 8.05174 10.0563 8.0569 10.0738Z" fill="#999894"/>
<path d="M5.49569 3.39409C4.65448 3.39409 3.81356 3.39466 2.97235 3.3938C2.74734 3.3938 2.56337 3.23712 2.53697 3.02794C2.50884 2.80383 2.64058 2.6044 2.85784 2.54787C2.89859 2.53725 2.94279 2.5361 2.98527 2.53581C4.66022 2.53524 6.33546 2.53524 8.01042 2.53553C8.27446 2.53553 8.46245 2.71258 8.46388 2.96022C8.46532 3.21417 8.27733 3.3938 8.00841 3.3938C7.17093 3.39409 6.33345 3.3938 5.49569 3.3938V3.39409Z" fill="#999894"/>
<path d="M5.48895 5.92928C4.64775 5.92928 3.80682 5.92985 2.96562 5.92899C2.74778 5.92899 2.56611 5.7726 2.53769 5.56686C2.50698 5.34361 2.63728 5.14332 2.85483 5.08449C2.89559 5.07359 2.9395 5.07129 2.98197 5.07129C4.66066 5.07072 6.33935 5.07043 8.01775 5.07101C8.27863 5.07101 8.4649 5.25265 8.46404 5.50287C8.46318 5.7508 8.27519 5.92928 8.01201 5.92928C7.1708 5.92985 6.32988 5.92928 5.48867 5.92928H5.48895Z" fill="#999894"/>
<path d="M4.2259 8.4645C3.81434 8.4645 3.40306 8.46479 2.9915 8.4645C2.722 8.46421 2.5343 8.28573 2.53516 8.03206C2.53602 7.78414 2.72401 7.60651 2.98719 7.60623C3.81721 7.60594 4.64751 7.60565 5.47752 7.60623C5.74013 7.60623 5.92783 7.785 5.92869 8.03321C5.92927 8.28257 5.74243 8.46393 5.48183 8.4645C5.06309 8.46536 4.64464 8.4645 4.2259 8.4645Z" fill="#999894"/>
</svg>
