<svg width="11" height="11" viewBox="0 0 11 11" fill="none" xmlns="http://www.w3.org/2000/svg">
<rect x="0.45" y="0.45" width="10.1" height="10.1" rx="2.05" fill="white" stroke="#999894" stroke-width="0.9"/>
<path d="M5.5 6.025C5.19667 6.025 4.95833 5.794 4.95833 5.5C4.95833 5.206 5.19667 4.975 5.5 4.975C5.80333 4.975 6.04167 5.206 6.04167 5.5C6.04167 5.794 5.80333 6.025 5.5 6.025ZM8.75 5.5C8.24083 4.2715 6.97875 3.4 5.5 3.4C4.02125 3.4 2.75917 4.2715 2.25 5.5C2.75917 6.7285 4.02125 7.6 5.5 7.6C6.97875 7.6 8.24083 6.7285 8.75 5.5ZM6.85417 5.5C6.85417 5.8481 6.7115 6.18193 6.45754 6.42808C6.20359 6.67422 5.85915 6.8125 5.5 6.8125C5.14085 6.8125 4.79642 6.67422 4.54246 6.42808C4.2885 6.18193 4.14583 5.8481 4.14583 5.5C4.14583 5.1519 4.2885 4.81806 4.54246 4.57192C4.79642 4.32578 5.14085 4.1875 5.5 4.1875C5.85915 4.1875 6.20359 4.32578 6.45754 4.57192C6.7115 4.81806 6.85417 5.1519 6.85417 5.5Z" fill="#999894"/>
</svg>
