<svg width="47" height="10" viewBox="0 0 47 10" fill="none" xmlns="http://www.w3.org/2000/svg">
<path d="M34.4279 9.02002C34.4279 8.11588 34.4279 7.21269 34.4279 6.30854C34.4279 6.2101 34.4595 6.10593 34.2865 6.10879C33.5897 6.12026 32.893 6.11931 32.1963 6.12313C31.9258 6.11931 31.6553 6.12408 31.3858 6.10975C31.2376 6.10115 31.2223 6.16518 31.2233 6.28943C31.2281 7.13336 31.2204 7.97729 31.23 8.82122C31.2319 8.99899 31.1898 9.05156 31.0092 9.04391C30.6518 9.02862 30.2934 9.03436 29.9349 9.042C29.8097 9.04487 29.7753 9.00664 29.7753 8.88144C29.7792 6.7157 29.7792 4.55091 29.7753 2.38518C29.7753 2.23321 29.826 2.1988 29.9674 2.20263C30.3172 2.21218 30.668 2.21505 31.0178 2.20263C31.1851 2.19689 31.2319 2.24373 31.23 2.41289C31.2204 3.18514 31.23 3.95739 31.2223 4.72964C31.2204 4.90454 31.2491 4.98769 31.4498 4.96953C31.6945 4.94755 31.942 4.95902 32.1886 4.95615C32.8806 4.95902 33.5716 4.95807 34.2635 4.96858C34.4088 4.97049 34.4308 4.91506 34.4298 4.7889C34.4251 4.00136 34.4327 3.21286 34.4232 2.42532C34.4212 2.2485 34.4623 2.19211 34.6449 2.20072C34.9699 2.21696 35.2977 2.21792 35.6226 2.20072C35.8176 2.1902 35.8769 2.24277 35.874 2.44539C35.8625 3.39254 35.8683 4.33874 35.8692 5.28589C35.8692 5.37286 35.8778 5.45984 35.8826 5.54681C35.8826 6.62108 35.8826 7.6963 35.8826 8.77057C35.8826 8.85754 35.895 8.94547 35.8692 9.03149C35.3894 9.06398 34.9087 9.08501 34.4289 9.02002H34.4279Z" fill="white"/>
<path d="M12.6525 6.16229C12.1249 6.45475 11.627 6.71949 11.065 6.81125C10.4256 6.91638 9.78045 6.94696 9.16781 6.68222C8.43093 6.36395 8.05723 5.76947 8.03047 4.98385C8.00084 4.11698 8.02664 3.2482 8.01804 2.38133C8.01613 2.2265 8.06774 2.19782 8.20824 2.20165C8.56569 2.2112 8.9241 2.21407 9.28155 2.20165C9.43829 2.19591 9.46219 2.25326 9.46123 2.39184C9.4555 3.12395 9.45836 3.85606 9.45836 4.58912C9.45836 4.72388 9.46219 4.85769 9.49182 4.99245C9.58739 5.43305 9.86074 5.69684 10.3023 5.73316C11.1128 5.80197 11.8525 5.57546 12.5521 5.18264C12.664 5.12052 12.6515 5.03546 12.6515 4.94179C12.6515 4.09786 12.6563 3.25393 12.6477 2.41C12.6458 2.24083 12.6917 2.19496 12.858 2.20165C13.2154 2.21503 13.5738 2.2112 13.9313 2.2026C14.0603 2.19974 14.0899 2.24179 14.0899 2.36413C14.0871 4.53751 14.0861 6.71089 14.0899 8.88332C14.0899 9.01139 14.0517 9.04293 13.9294 9.04006C13.5633 9.03242 13.1973 9.02955 12.8312 9.04006C12.685 9.04484 12.6448 9.00661 12.6468 8.85656C12.6544 8.04512 12.6506 7.23273 12.6506 6.42034C12.6506 6.34293 12.6506 6.26551 12.6506 6.16038L12.6525 6.16229Z" fill="white"/>
<path d="M28.1752 7.56191C28.1752 7.9423 28.1714 8.32174 28.1771 8.70021C28.179 8.81873 28.093 8.84358 28.0184 8.87989C27.6887 9.04237 27.3389 9.12648 26.9719 9.15611C26.3516 9.20485 25.7361 9.22588 25.1302 9.04906C24.2145 8.78241 23.6086 8.18506 23.3314 7.28187C23.0017 6.20761 22.9921 5.11805 23.3591 4.05334C23.7242 2.99436 24.5089 2.38937 25.6042 2.20682C26.4558 2.06537 27.293 2.14183 28.1102 2.4362C28.2975 2.50406 28.3329 2.57766 28.2507 2.75638C28.1331 3.01443 28.0318 3.28109 27.942 3.55061C27.8961 3.68728 27.8435 3.69398 27.7183 3.6481C27.3991 3.5315 27.0751 3.42923 26.7349 3.39291C25.5287 3.26293 24.9027 3.69971 24.6628 4.88007C24.5338 5.51755 24.5577 6.16269 24.7335 6.79157C24.9486 7.55713 25.4876 7.95759 26.2818 7.98435C26.8725 8.00443 27.4287 7.88113 27.9611 7.63264C28.0232 7.60396 28.0787 7.55331 28.1752 7.56095V7.56191Z" fill="white"/>
<path d="M46.3118 5.54714C46.2765 6.50385 46.0213 7.38697 45.4345 8.15731C44.6116 9.23922 43.521 9.83274 42.1667 9.94265C41.9861 9.97515 41.8064 9.97897 41.6267 9.93979C39.2842 9.76393 37.5734 7.91932 37.5246 5.55097C37.5982 5.03582 37.6546 4.51684 37.8639 4.03132C38.4594 2.6493 39.4763 1.76236 40.9415 1.40395C41.1479 1.3533 41.3658 1.34565 41.5789 1.31889C41.7137 1.30169 41.7825 1.33705 41.7768 1.49666C41.7644 1.79868 41.7701 2.10165 41.7749 2.40367C41.7768 2.52027 41.7462 2.56902 41.6172 2.58049C40.2017 2.70951 39.0472 3.80576 38.834 5.22123C38.8178 5.32923 38.8321 5.44297 38.8321 5.55384C38.8818 5.61405 38.877 5.68668 38.8809 5.75837C38.9554 7.18722 40.0039 8.35037 41.4279 8.58644C43.0479 8.85501 44.5762 7.79317 44.8868 6.18177C44.926 5.97819 44.9241 5.77079 44.926 5.5653C44.9308 5.18778 44.8696 4.82459 44.7138 4.47766C44.6488 4.33238 44.6039 4.29702 44.4711 4.43082C44.1021 4.80261 43.7648 5.20212 43.3949 5.57295C43.0451 5.9715 42.7039 6.37769 42.3397 6.76191C42.1428 6.96931 42.1027 6.95784 41.8934 6.77242C41.5379 6.45798 41.1852 6.14067 40.8249 5.83196C40.7302 5.75072 40.6222 5.67713 40.5811 5.5481C40.4046 5.3595 40.4094 5.16198 40.5955 4.95553C40.7388 4.79592 40.8832 4.63727 41.0217 4.47288C41.1011 4.37921 41.1642 4.38208 41.253 4.46523C41.4671 4.6669 41.7013 4.84753 41.9058 5.0578C42.0282 5.183 42.0836 5.13904 42.1792 5.03677C42.9696 4.18711 43.7648 3.34031 44.5609 2.49542C44.7635 2.28038 44.7587 2.29376 44.9614 2.51167C45.4966 3.0899 45.9219 3.7293 46.1398 4.49773C46.2382 4.84371 46.2545 5.19925 46.3157 5.55001L46.3118 5.54714Z" fill="white"/>
<path d="M35.8575 9.02632C35.8595 7.96161 35.8623 6.89595 35.8652 5.83124C35.8652 5.73662 35.8747 5.642 35.8795 5.54642C35.89 5.54356 35.8996 5.54547 35.9072 5.55216C35.9072 6.63694 35.9072 7.72076 35.9034 8.80554C35.9034 8.89634 35.9407 8.99669 35.8585 9.07602C35.8289 9.06073 35.8289 9.04448 35.8566 9.02632H35.8575Z" fill="white"/>
<path d="M35.8582 9.02584C35.8582 9.04209 35.8592 9.05833 35.8601 9.07554C35.4444 9.07745 35.0286 9.08032 34.6129 9.08032C34.5469 9.08032 34.4676 9.10517 34.4265 9.0201C34.9034 9.02201 35.3806 9.02345 35.8575 9.02632L35.8582 9.02584Z" fill="white"/>
<path d="M41.6267 9.93979C41.8064 9.94074 41.9861 9.9417 42.1667 9.94265C41.9861 10.0182 41.8064 10.021 41.6267 9.93979Z" fill="white"/>
<path d="M6.4198 5.90973C6.29746 5.11358 5.78422 4.66438 5.04064 4.44265C4.91353 4.40442 4.78546 4.36905 4.6507 4.33082C4.69466 4.24958 4.74914 4.25627 4.79215 4.24385C5.67526 4.00109 6.10918 3.40087 6.19424 2.50724C6.28026 1.59832 5.89127 0.794534 5.17445 0.439949C4.69084 0.201011 4.17186 0.0863206 3.64047 0.0519135C2.49738 -0.0207238 1.35144 0.00603725 0.206443 0.000302731C0.0592567 0.00221424 0 0.029931 0 0.196232C0.00477877 3.08452 0.00477877 5.97281 0 8.86109C0 9.00828 0.0372744 9.04842 0.18446 9.04747C1.19469 9.04078 2.20397 9.04938 3.2142 9.04078C3.52291 9.03791 3.83353 9.03982 4.14033 8.97961C4.709 8.86779 5.2404 8.67185 5.68769 8.29338C6.43891 7.6578 6.55934 6.81674 6.4198 5.90877V5.90973ZM1.47377 2.50533C1.47377 2.14693 1.47664 1.78852 1.47186 1.43011C1.4709 1.32402 1.4948 1.26572 1.61522 1.26954C2.28999 1.29057 2.96857 1.21698 3.63951 1.33836C4.10018 1.42151 4.52071 1.60884 4.61438 2.11825C4.78641 3.05394 4.44234 3.60254 3.42351 3.72487C2.83763 3.79464 2.24793 3.76406 1.66014 3.77362C1.51009 3.77649 1.46899 3.72201 1.47186 3.58056C1.47951 3.22215 1.47473 2.86374 1.47473 2.50533H1.47377ZM4.76252 7.07192C4.57519 7.46187 4.2273 7.65493 3.82493 7.73617C3.09377 7.88432 2.35115 7.79925 1.61331 7.82028C1.46708 7.8241 1.47186 7.73426 1.47186 7.63295C1.47377 7.21911 1.47186 6.80527 1.47186 6.39143C1.47186 5.97759 1.47473 5.56374 1.46995 5.1499C1.46804 5.02661 1.48906 4.95684 1.63721 4.96258C2.29572 4.98647 2.95519 4.93581 3.61466 5.01323C4.68893 5.13939 5.2318 6.09323 4.76156 7.07288L4.76252 7.07192Z" fill="white"/>
<path d="M21.488 6.54484H21.4833C21.4833 5.7726 21.4957 5.00035 21.4804 4.22905C21.4594 3.19302 20.9939 2.52112 20.0592 2.23917C18.8224 1.86643 17.6325 2.0853 16.4789 2.6081C16.3595 2.66257 16.4139 2.73139 16.4426 2.79733C16.5468 3.03627 16.6624 3.26948 16.759 3.51128C16.8221 3.66803 16.8861 3.70339 17.0524 3.62311C17.5828 3.36792 18.1353 3.19302 18.7364 3.18537C19.4743 3.17581 19.8757 3.46063 19.9923 4.13252C20.0152 4.26442 20.0104 4.40204 20.0114 4.53681C20.0152 4.8675 20.0133 4.86941 19.6759 4.86845C18.8645 4.86559 18.0578 4.89235 17.2684 5.11313C16.261 5.39507 15.7726 5.94081 15.6943 6.94531C15.6168 7.94502 16.1052 8.76315 16.9473 9.03841C17.4911 9.21618 18.0406 9.19706 18.594 9.10626C19.1981 9.00687 19.653 8.6628 20.0315 8.20308C20.1223 8.09221 20.1634 8.07309 20.2025 8.23557C20.2542 8.45062 20.3344 8.65897 20.3803 8.87497C20.408 9.00304 20.4616 9.0451 20.5877 9.04032C20.8181 9.03172 21.0493 9.02694 21.2797 9.04127C21.4441 9.05179 21.4928 9.00687 21.4909 8.83579C21.4804 8.07214 21.4861 7.30754 21.4861 6.54389L21.488 6.54484ZM20.0487 6.20268C20.0592 6.42442 20.0391 6.6624 19.9827 6.89369C19.7505 7.83702 18.5233 8.38849 17.6545 7.94502C17.3372 7.78255 17.2091 7.49486 17.2034 7.16322C17.1967 6.75607 17.3286 6.39384 17.6985 6.16923C18.0808 5.93699 18.5147 5.88155 18.9476 5.84045C19.2315 5.81369 19.5182 5.81847 19.8021 5.78598C19.998 5.76399 20.0869 5.81083 20.0506 6.01918C20.041 6.07366 20.0496 6.13005 20.0496 6.20364L20.0487 6.20268Z" fill="white"/>
</svg>
