<svg width="4" height="5" viewBox="0 0 4 5" fill="none" xmlns="http://www.w3.org/2000/svg">
    <path d="M2.10315 4.89141C1.73326 4.89141 1.42028 4.84579 1.1642 4.75457C0.908128 4.66334 0.711329 4.52868 0.573807 4.35057C0.441027 4.16812 0.374637 3.93789 0.374637 3.65987C0.374637 3.57733 0.38175 3.49914 0.395976 3.42529C0.410203 3.3471 0.429171 3.27542 0.452882 3.21026H0.118561V2.79323H0.716071C0.810914 2.70635 0.936581 2.62816 1.09307 2.55865C1.2543 2.4848 1.42028 2.41964 1.591 2.36317C1.76646 2.3067 1.92058 2.25891 2.05336 2.21982C2.18614 2.17638 2.2715 2.14597 2.30943 2.12859H0.118561V1.71156H2.83581C2.87375 1.65075 2.89983 1.58776 2.91406 1.5226C2.93302 1.45743 2.94251 1.3749 2.94251 1.27499C2.94251 1.14032 2.90931 1.0252 2.84292 0.929633C2.77653 0.82972 2.67458 0.753699 2.53706 0.701571C2.39953 0.649442 2.2217 0.623378 2.00356 0.623378C1.84707 0.623378 1.69532 0.63641 1.54832 0.662474C1.40605 0.688538 1.2709 0.723291 1.14286 0.766731C1.01957 0.805828 0.903386 0.849268 0.794317 0.897053L0.616486 0.382283C0.796688 0.30409 1.0172 0.238929 1.27802 0.186801C1.53883 0.134672 1.79254 0.108608 2.03913 0.108608C2.3616 0.108608 2.63664 0.149876 2.86426 0.232413C3.09663 0.310606 3.27446 0.430067 3.39775 0.590797C3.52579 0.751527 3.58981 0.955697 3.58981 1.20331C3.58981 1.29453 3.5827 1.38576 3.56847 1.47698C3.55425 1.56386 3.52816 1.64206 3.49023 1.71156H3.88145V2.12859H3.2626C3.18673 2.1981 3.06818 2.26977 2.90694 2.34362C2.74571 2.41313 2.57736 2.47829 2.4019 2.5391C2.22644 2.59992 2.06758 2.65205 1.92532 2.69549C1.78305 2.73893 1.69058 2.77151 1.6479 2.79323H3.88145V3.21026H1.11441C1.07647 3.27542 1.05039 3.33624 1.03617 3.39271C1.02194 3.44918 1.01483 3.52737 1.01483 3.62729C1.01483 3.79671 1.05751 3.93789 1.14286 4.05083C1.22822 4.15943 1.35626 4.24197 1.52698 4.29844C1.6977 4.35492 1.90872 4.38315 2.16005 4.38315C2.43036 4.38315 2.69118 4.35274 2.94251 4.29193C3.19858 4.22677 3.41198 4.15943 3.5827 4.08993V4.61773C3.42147 4.68724 3.2057 4.75022 2.9354 4.8067C2.66509 4.86317 2.38768 4.89141 2.10315 4.89141Z"
          fill="currentColor"/>
    <path fill-rule="evenodd" clip-rule="evenodd"
          d="M0.475157 4.41081C0.326313 4.20628 0.256076 3.95359 0.256076 3.65986C0.256076 3.57181 0.263648 3.48743 0.279122 3.40692C0.284609 3.37681 0.290788 3.34745 0.297676 3.31885H0V2.68462H0.668598C0.769263 2.60046 0.894124 2.52637 1.04069 2.46121C1.20589 2.38558 1.37591 2.31884 1.55072 2.26102L1.55169 2.2607C1.57658 2.25269 1.60105 2.24485 1.6251 2.23718H0V1.60295H2.76286C2.77873 1.56946 2.79031 1.5356 2.7978 1.50129L2.79927 1.49455C2.81464 1.44176 2.82395 1.36952 2.82395 1.27498C2.82395 1.15702 2.79506 1.06302 2.7429 0.987932L2.74163 0.986104C2.6904 0.909014 2.60997 0.846736 2.49172 0.801913C2.37363 0.75715 2.21276 0.731972 2.00356 0.731972C1.85441 0.731972 1.71033 0.744379 1.57118 0.769029C1.43478 0.794037 1.30578 0.827261 1.18403 0.868565L1.18165 0.869375C1.06224 0.907238 0.950203 0.94913 0.84546 0.995019L0.722427 1.04892L0.472239 0.324696L0.565728 0.284129C0.756273 0.201448 0.985882 0.134024 1.25274 0.0806892C1.52118 0.0270366 1.78337 0 2.03912 0C2.37142 0 2.66166 0.0423774 2.90652 0.130932C3.15692 0.215431 3.35519 0.346796 3.49414 0.52756C3.63984 0.710872 3.70836 0.938757 3.70836 1.2033C3.70836 1.29972 3.70084 1.39607 3.68583 1.49234L3.68571 1.49309C3.67952 1.53085 3.67127 1.56749 3.66087 1.60295H4V2.23718H3.30933C3.22246 2.30721 3.10422 2.37467 2.95995 2.44075L2.95743 2.44191C2.79326 2.51268 2.62205 2.5789 2.44385 2.64067C2.40006 2.65585 2.35727 2.6705 2.31547 2.68462H4V3.31885H1.18838C1.17119 3.35463 1.15918 3.38735 1.15168 3.41712C1.14041 3.46186 1.13337 3.53059 1.13337 3.62728C1.13337 3.77935 1.17138 3.89736 1.2397 3.98818C1.30806 4.07475 1.41399 4.1456 1.56724 4.19629C1.72113 4.2472 1.91755 4.27454 2.16005 4.27454C2.42027 4.27454 2.67065 4.24531 2.91149 4.1871C3.16377 4.12288 3.371 4.05726 3.53454 3.99068L3.70124 3.92281V4.68664L3.63317 4.71599C3.4612 4.79012 3.23632 4.85521 2.96175 4.91257C2.68257 4.9709 2.39631 5 2.10314 5C1.72333 5 1.39484 4.95325 1.12123 4.85578C0.846897 4.75805 0.629935 4.61133 0.477011 4.41328L0.475157 4.41081ZM2.94251 4.29193C2.69118 4.35274 2.43036 4.38315 2.16005 4.38315C1.90872 4.38315 1.6977 4.35492 1.52698 4.29844C1.35626 4.24197 1.22822 4.15943 1.14286 4.05083C1.05751 3.93789 1.01483 3.79671 1.01483 3.62729C1.01483 3.52737 1.02194 3.44918 1.03617 3.39271C1.05039 3.33624 1.07647 3.27542 1.11441 3.21026H3.88145V2.79323H1.6479C1.69058 2.77151 1.78305 2.73893 1.92532 2.69549C1.93698 2.69193 1.94875 2.6883 1.96064 2.68462C2.09374 2.64344 2.24083 2.59493 2.4019 2.5391C2.57736 2.47829 2.74571 2.41313 2.90694 2.34362C3.06818 2.26977 3.18673 2.1981 3.2626 2.12859H3.88145V1.71156H3.49023C3.50884 1.67745 3.5246 1.64125 3.53751 1.60295C3.5509 1.56321 3.56123 1.52123 3.56847 1.47698C3.5827 1.38576 3.58981 1.29453 3.58981 1.20331C3.58981 0.955697 3.52579 0.751527 3.39775 0.590797C3.27446 0.430067 3.09663 0.310606 2.86426 0.232413C2.63664 0.149876 2.3616 0.108608 2.03913 0.108608C1.79254 0.108608 1.53883 0.134672 1.27802 0.186801C1.0172 0.238929 0.796688 0.30409 0.616486 0.382283L0.794317 0.897053C0.829801 0.881506 0.866032 0.866413 0.903023 0.851787C0.97973 0.821455 1.05968 0.793108 1.14286 0.766731C1.2709 0.723291 1.40605 0.688538 1.54832 0.662474C1.69532 0.63641 1.84707 0.623378 2.00356 0.623378C2.2217 0.623378 2.39953 0.649442 2.53706 0.701571C2.67458 0.753699 2.77653 0.82972 2.84292 0.929633C2.90931 1.0252 2.94251 1.14032 2.94251 1.27499C2.94251 1.3749 2.93302 1.45743 2.91406 1.5226C2.89983 1.58776 2.87375 1.65075 2.83581 1.71156H0.118561V2.12859H2.30943C2.2715 2.14597 2.18614 2.17638 2.05336 2.21982C2.03429 2.22543 2.01478 2.23121 1.99484 2.23718C1.87588 2.27281 1.74127 2.3148 1.591 2.36317C1.42028 2.41964 1.2543 2.4848 1.09307 2.55865C0.936581 2.62816 0.810914 2.70635 0.716071 2.79323H0.118561V3.21026H0.452882C0.44037 3.24464 0.429171 3.28084 0.4193 3.31885C0.410465 3.35288 0.402695 3.38836 0.395976 3.42529C0.38175 3.49914 0.374637 3.57733 0.374637 3.65987C0.374637 3.93789 0.441027 4.16812 0.573807 4.35057C0.711329 4.52868 0.908128 4.66334 1.1642 4.75457C1.42028 4.84579 1.73326 4.89141 2.10315 4.89141C2.38768 4.89141 2.66509 4.86317 2.9354 4.8067C3.2057 4.75022 3.42147 4.68724 3.5827 4.61773V4.08993C3.54524 4.10518 3.50571 4.12032 3.46414 4.13536C3.31626 4.18887 3.14239 4.24107 2.94251 4.29193Z"
          fill="currentColor"/>
</svg>
