<svg width="4" height="5" viewBox="0 0 4 5" fill="none" xmlns="http://www.w3.org/2000/svg">
    <path d="M0 3.80128L0.598071 3.36538C0.709539 3.5406 0.868167 3.68803 1.07396 3.80769C1.27974 3.92308 1.50911 4 1.76206 4.03846V2.70513C1.24759 2.6282 0.857449 2.49786 0.59164 2.3141C0.325831 2.13034 0.192926 1.87607 0.192926 1.55128C0.192926 1.19658 0.340836 0.903846 0.636656 0.673077C0.932476 0.438034 1.30761 0.309829 1.76206 0.288461V0H2.33441V0.314102C3.05895 0.395299 3.57556 0.67735 3.88424 1.16026L3.2926 1.59615C3.06967 1.27137 2.75027 1.06838 2.33441 0.987179V2.1282C3.4448 2.29487 4 2.7265 4 3.42308C4 3.82051 3.84352 4.1282 3.53055 4.34615C3.21758 4.5641 2.81886 4.68803 2.33441 4.71795V5H1.76206V4.71154C1.37192 4.67308 1.02251 4.57479 0.713826 4.41667C0.405145 4.25427 0.167203 4.04914 0 3.80128ZM3.26045 3.4359C3.26045 3.26068 3.18114 3.12393 3.02251 3.02564C2.86388 2.92308 2.63451 2.84402 2.33441 2.78846V4.07051C2.95177 4.03205 3.26045 3.82051 3.26045 3.4359ZM0.951768 1.51923C0.951768 1.6688 1.01608 1.78419 1.14469 1.86538C1.2776 1.94231 1.48339 2.00427 1.76206 2.05128V0.942307C1.52197 0.963675 1.3269 1.02564 1.17685 1.1282C1.0268 1.23077 0.951768 1.36111 0.951768 1.51923Z"
          fill="currentColor"/>
</svg>
